<svg width="1512" height="1274" viewBox="0 0 1512 1274" fill="none" xmlns="http://www.w3.org/2000/svg">
<g clip-path="url(#clip0_52_3)">
<rect width="1512" height="1274" fill="white"/>
<line y1="-0.5" x2="1967.83" y2="-0.5" transform="matrix(0.839531 0.543311 -0.839531 0.543311 -508.899 479.301)" stroke="#DEDEDE"/>
<line y1="-0.5" x2="2210.08" y2="-0.5" transform="matrix(-0.583026 0.812453 -0.578014 -0.816027 1313.08 -350.777)" stroke="#DEDEDE"/>
<line y1="-0.5" x2="1967.83" y2="-0.5" transform="matrix(0.839531 0.543311 -0.839531 0.543311 -41.2534 173.831)" stroke="#DEDEDE"/>
<line y1="-0.5" x2="2210.08" y2="-0.5" transform="matrix(-0.583026 0.812453 -0.578014 -0.816027 1677.88 159.465)" stroke="#DEDEDE"/>
<line y1="-0.5" x2="1967.83" y2="-0.5" transform="matrix(0.839531 0.543311 -0.839531 0.543311 196.94 19.6812)" stroke="#DEDEDE"/>
<line y1="-0.5" x2="1967.83" y2="-0.5" transform="matrix(-0.543311 0.839531 -0.543311 -0.839531 1846.06 332.677)" stroke="#DEDEDE"/>
<line y1="-0.5" x2="1967.83" y2="-0.5" transform="matrix(0.839531 0.543311 -0.839531 0.543311 -746 631.329)" stroke="#DEDEDE"/>
<line y1="-0.5" x2="2210.08" y2="-0.5" transform="matrix(-0.583026 0.812453 -0.578014 -0.816027 1131.54 -609.466)" stroke="#DEDEDE"/>
<line y1="-0.5" x2="2210.08" y2="-0.5" transform="matrix(-0.583026 0.812453 -0.578014 -0.816027 1006.54 -702)" stroke="#DEDEDE"/>
<line y1="-0.5" x2="2210.08" y2="-0.5" transform="matrix(-0.583026 0.812453 -0.578014 -0.816027 877.536 -774)" stroke="#DEDEDE"/>
<line y1="-0.5" x2="1967.83" y2="-0.5" transform="matrix(0.839531 0.543311 -0.839531 0.543311 -276.169 324.444)" stroke="#DEDEDE"/>
<line y1="-0.5" x2="2210.08" y2="-0.5" transform="matrix(-0.583026 0.812453 -0.578014 -0.816027 1498.03 -96.8393)" stroke="#DEDEDE"/>
<line y1="-0.5" x2="1967.83" y2="-0.5" transform="matrix(0.839531 0.543311 -0.839531 0.543311 297.462 -68)" stroke="#DEDEDE"/>
<line y1="-0.5" x2="1967.83" y2="-0.5" transform="matrix(-0.543311 0.839531 -0.543311 -0.839531 1933.74 433.199)" stroke="#DEDEDE"/>
<line y1="-0.5" x2="1967.83" y2="-0.5" transform="matrix(0.839531 0.543311 -0.839531 0.543311 -645.478 543.647)" stroke="#DEDEDE"/>
<line y1="-0.5" x2="1967.83" y2="-0.5" transform="matrix(0.839531 0.543311 -0.839531 0.543311 -157.072 248.784)" stroke="#DEDEDE"/>
<line y1="-0.5" x2="1967.83" y2="-0.5" transform="matrix(0.839531 0.543311 -0.839531 0.543311 60.3608 84.028)" stroke="#DEDEDE"/>
<line y1="-0.5" x2="1967.83" y2="-0.5" transform="matrix(-0.543311 0.839531 -0.543311 -0.839531 1781.71 196.098)" stroke="#DEDEDE"/>
<line y1="-0.5" x2="1967.83" y2="-0.5" transform="matrix(0.839531 0.543311 -0.839531 0.543311 -394.173 400.812)" stroke="#DEDEDE"/>
<line y1="-0.5" x2="1967.83" y2="-0.5" transform="matrix(0.839531 0.543311 -0.839531 0.543311 314.943 -56.6863)" stroke="#DEDEDE"/>
<line y1="-0.5" x2="1967.83" y2="-0.5" transform="matrix(0.839531 0.543311 -0.839531 0.543311 396 -178)" stroke="#DEDEDE"/>
<line y1="-0.5" x2="1967.83" y2="-0.5" transform="matrix(0.839531 0.543311 -0.839531 0.543311 487 -286)" stroke="#DEDEDE"/>
<line y1="-0.5" x2="1967.83" y2="-0.5" transform="matrix(-0.543311 0.839531 -0.543311 -0.839531 1922.42 450.681)" stroke="#DEDEDE"/>
<line y1="-0.5" x2="1967.83" y2="-0.5" transform="matrix(0.839531 0.543311 -0.839531 0.543311 -627.996 554.961)" stroke="#DEDEDE"/>
<line y1="-0.5" x2="2210.08" y2="-0.5" transform="matrix(-0.583026 0.812453 -0.578014 -0.816027 1222.73 -480.715)" stroke="#DEDEDE"/>
<line y1="-0.5" x2="1967.83" y2="-0.5" transform="matrix(0.839531 0.543311 -0.839531 0.543311 -139.59 260.098)" stroke="#DEDEDE"/>
<line y1="-0.5" x2="2210.08" y2="-0.5" transform="matrix(-0.583026 0.812453 -0.578014 -0.816027 1574.74 52.0994)" stroke="#DEDEDE"/>
<line y1="-0.5" x2="1967.83" y2="-0.5" transform="matrix(0.839531 0.543311 -0.839531 0.543311 77.8433 95.3417)" stroke="#DEDEDE"/>
<line y1="-0.5" x2="1967.83" y2="-0.5" transform="matrix(0.839531 0.543311 -0.839531 0.543311 -376.691 412.125)" stroke="#DEDEDE"/>
<line y1="-0.5" x2="2210.08" y2="-0.5" transform="matrix(-0.583026 0.812453 -0.578014 -0.816027 1393.2 -206.589)" stroke="#DEDEDE"/>
</g>
<defs>
<clipPath id="clip0_52_3">
<rect width="1512" height="1274" fill="white"/>
</clipPath>
</defs>
</svg>
